<?xml version="1.0" encoding="UTF-8"?>
<svg id="Layer_1" data-name="Layer 1" xmlns="http://www.w3.org/2000/svg" viewBox="0 0 82 82">
  <path d="M7.08,23.69h67.74c3.8,0,6.89-3.09,6.89-7.01s-3.15-7.01-7.01-7.01H7.08C3.21,9.66.06,12.81.06,16.68s3.14,7.01,7.01,7.01ZM7.08,10.94h67.62c3.16,0,5.74,2.57,5.74,5.86,0,3.1-2.52,5.62-5.62,5.62H7.08c-3.16,0-5.74-2.57-5.74-5.73s2.57-5.74,5.74-5.74Z"/>
  <path d="M7.08,39.24h68.03c3.8,0,6.89-3.09,6.89-7.01s-3.15-7.01-7.01-7.01H7.08C3.21,25.22.06,28.36.06,32.23s3.14,7.01,7.01,7.01ZM7.08,26.49h67.91c3.16,0,5.74,2.57,5.74,5.86,0,3.1-2.52,5.62-5.62,5.62H7.08c-3.16,0-5.74-2.57-5.74-5.74s2.57-5.74,5.74-5.74Z"/>
  <path d="M74.99,40.69H7.08c-3.87,0-7.01,3.15-7.01,7.01s3.14,7.01,7.01,7.01h68.03c3.8,0,6.89-3.09,6.89-7.01s-3.15-7.01-7.01-7.01ZM75.11,53.44H7.08c-3.16,0-5.74-2.57-5.74-5.74s2.57-5.74,5.74-5.74h67.91c3.16,0,5.74,2.57,5.74,5.86,0,3.1-2.52,5.62-5.62,5.62Z"/>
  <path d="M74.99,56.01H7.01c-3.87,0-7.01,3.15-7.01,7.01s3.14,7.01,7.01,7.01h68.1c3.8,0,6.89-3.09,6.89-7.01s-3.15-7.01-7.01-7.01ZM75.11,68.76H7.01c-3.16,0-5.74-2.57-5.74-5.73s2.57-5.74,5.74-5.74h67.97c3.16,0,5.74,2.57,5.74,5.86,0,3.1-2.52,5.62-5.62,5.62Z"/>
  <path d="M7.45,37.37c2.83,0,5.14-2.3,5.14-5.14s-2.31-5.14-5.14-5.14-5.14,2.3-5.14,5.14,2.31,5.14,5.14,5.14ZM7.45,27.73c2.48,0,4.5,2.02,4.5,4.5s-2.02,4.5-4.5,4.5-4.5-2.02-4.5-4.5,2.02-4.5,4.5-4.5Z"/>
  <path d="M8.75,33.91c.06.06.14.09.22.09.08,0,.17-.03.23-.1.12-.13.12-.33-.01-.45l-1.42-1.35v-3.08c0-.18-.14-.32-.32-.32s-.32.14-.32.32v3.21c0,.09.04.17.1.23l1.52,1.45Z"/>
  <path d="M7.45,57.89c-2.83,0-5.14,2.3-5.14,5.14s2.31,5.14,5.14,5.14,5.14-2.3,5.14-5.14-2.31-5.14-5.14-5.14ZM7.45,67.53c-2.48,0-4.5-2.02-4.5-4.5s2.02-4.5,4.5-4.5,4.5,2.02,4.5,4.5-2.02,4.5-4.5,4.5Z"/>
  <path d="M9.1,61.5l-1.33.91v-2.61c0-.18-.14-.32-.32-.32s-.32.14-.32.32v3.21c0,.12.07.23.17.28.05.02.1.04.15.04.06,0,.13-.02.18-.06l1.83-1.26c.15-.1.18-.3.08-.44-.1-.14-.3-.18-.44-.08Z"/>
  <path d="M7.45,42.56c-2.83,0-5.14,2.3-5.14,5.14s2.31,5.14,5.14,5.14,5.14-2.3,5.14-5.14-2.31-5.14-5.14-5.14ZM7.45,52.2c-2.48,0-4.5-2.02-4.5-4.5s2.02-4.5,4.5-4.5,4.5,2.02,4.5,4.5-2.02,4.5-4.5,4.5Z"/>
  <path d="M9.86,47.38h-2.09v-2.89c0-.18-.14-.32-.32-.32s-.32.14-.32.32v3.21c0,.18.14.32.32.32h2.41c.18,0,.32-.14.32-.32s-.14-.32-.32-.32Z"/>
</svg>