<?xml version="1.0" encoding="UTF-8"?>
<svg id="Layer_1" data-name="Layer 1" xmlns="http://www.w3.org/2000/svg" viewBox="0 0 82 82">
  <defs>
    <style>
      .cls-1 {
        fill: #efe0da;
      }

      .cls-2, .cls-3 {
        stroke: #7688a3;
      }

      .cls-2, .cls-3, .cls-4 {
        fill: none;
      }

      .cls-2, .cls-4 {
        stroke-miterlimit: 10;
      }

      .cls-3 {
        stroke-linecap: round;
        stroke-linejoin: round;
        stroke-width: .5px;
      }

      .cls-4 {
        stroke: #444c57;
      }
    </style>
  </defs>
  <path class="cls-1" d="M80.97,21.1c-.21-1.75-.55-3.46-1.03-5.13-.48-1.67-1.29-3.52-2.43-5.57-1.14-2.03-2.8-3.91-4.97-5.64-2.18-1.72-4.84-2.94-8-3.65-1.74-.39-3.5-.61-5.3-.66-.49-.01-.97-.02-1.45-.02-2.8,0-5.63.27-8.49.82-2.86.55-5.76,1.4-8.69,2.55-5.18,2.04-9.9,4.57-14.16,7.6-4.26,3.03-8.09,6.5-11.51,10.43-1.86,2.14-3.45,4.4-4.78,6.79-2.62,3.87-4.71,8.05-6.26,12.57-1.07,3.11-1.79,5.89-2.16,8.34-.36,2.45-.56,4.53-.59,6.25-.02,1.55.05,3.11.21,4.69.18,1.75.5,3.47.96,5.14.46,1.67,1.24,3.54,2.35,5.6,1.11,2.05,2.74,3.95,4.9,5.7,2.15,1.75,4.81,3,7.95,3.75,1.73.41,3.49.65,5.29.73.49.02.97.03,1.45.04,2.8.04,5.63-.19,8.5-.71.07-.01.14-.03.2-.04.71-.05,1.65-.2,2.83-.47,1.44-.33,2.68-.71,3.73-1.14.45-.18.89-.38,1.33-.57.21-.08.41-.14.62-.22.21-.08.4-.17.61-.25.05,0,.11-.02.15-.02.06,0,.15.02.27.05.12.04.26.22.41.54.13.23.26.35.39.36.13,0,.21,0,.22,0,.23,0,.47-.07.7-.21.39-.23.58-.54.58-.93-.01-.08-.02-.16-.02-.23,0-.31.08-.57.25-.8,3.83-1.69,7.4-3.67,10.7-5.95,4.3-2.97,8.18-6.4,11.64-10.27,2.37-2.65,4.31-5.5,5.85-8.55,2.26-3.62,4.07-7.5,5.44-11.65,1.03-3.12,1.72-5.91,2.05-8.37.33-2.45.5-4.54.5-6.25,0-1.55-.09-3.11-.27-4.69Z"/>
  <path class="cls-4" d="M17.34,25.38h53.01c2.76,0,5,2.24,5,5v.09c0,2.71-2.2,4.9-4.9,4.9H17.34c-2.76,0-5-2.24-5-5h0c0-2.76,2.24-5,5-5Z"/>
  <path class="cls-2" d="M17.34,37.38h51.16c2.76,0,5,2.24,5,5v.09c0,2.71-2.2,4.9-4.9,4.9H17.34c-2.76,0-5-2.24-5-5h0c0-2.76,2.24-5,5-5Z"/>
  <path class="cls-2" d="M17.34,49.49h44.16c2.76,0,5,2.24,5,5v.09c0,2.71-2.2,4.9-4.9,4.9H17.34c-2.76,0-5-2.24-5-5h0c0-2.76,2.24-5,5-5Z"/>
  <path class="cls-3" d="M17.89,39.85v2.52l1.19,1.13M21.67,42.37c0,2.09-1.69,3.78-3.78,3.78s-3.78-1.69-3.78-3.78,1.69-3.78,3.78-3.78,3.78,1.69,3.78,3.78Z"/>
  <path class="cls-2" d="M17.29,61.51h31.21c2.76,0,5,2.24,5,5v.09c0,2.71-2.2,4.9-4.9,4.9h-31.31c-2.76,0-5-2.24-5-5h0c0-2.76,2.24-5,5-5Z"/>
  <path class="cls-3" d="M17.89,63.99v2.52l1.44-.98M21.67,66.51c0,2.09-1.69,3.78-3.78,3.78s-3.78-1.69-3.78-3.78,1.69-3.78,3.78-3.78,3.78,1.69,3.78,3.78Z"/>
  <path class="cls-3" d="M17.89,51.99v2.52h1.89M21.67,54.51c0,2.09-1.69,3.78-3.78,3.78s-3.78-1.69-3.78-3.78,1.69-3.78,3.78-3.78,3.78,1.69,3.78,3.78Z"/>
</svg>